<?xml version="1.0" encoding="UTF-8" standalone="no"?>
<svg
   xmlns:dc="http://purl.org/dc/elements/1.1/"
   xmlns:cc="http://creativecommons.org/ns#"
   xmlns:rdf="http://www.w3.org/1999/02/22-rdf-syntax-ns#"
   xmlns:svg="http://www.w3.org/2000/svg"
   xmlns="http://www.w3.org/2000/svg"
   xmlns:xlink="http://www.w3.org/1999/xlink"
   xmlns:sodipodi="http://sodipodi.sourceforge.net/DTD/sodipodi-0.dtd"
   xmlns:inkscape="http://www.inkscape.org/namespaces/inkscape"
   width="49.813087mm"
   height="56.720051mm"
   viewBox="0 0 49.813087 56.720051"
   version="1.1"
   id="svg8"
   inkscape:version="1.0 (4035a4fb49, 2020-05-01)"
   sodipodi:docname="invader.svg"
   inkscape:export-filename="/home/birb/Documents/invader/icon/128x128.png"
   inkscape:export-xdpi="57.320118"
   inkscape:export-ydpi="57.320118">
  <defs
     id="defs2">
    <linearGradient
       inkscape:collect="always"
       id="linearGradient1120">
      <stop
         style="stop-color:#ffffff;stop-opacity:1;"
         offset="0"
         id="stop1116" />
      <stop
         style="stop-color:#ffffff;stop-opacity:0;"
         offset="1"
         id="stop1118" />
    </linearGradient>
    <inkscape:path-effect
       effect="bspline"
       id="path-effect1456"
       is_visible="true"
       lpeversion="1"
       weight="33.333333"
       steps="2"
       helper_size="0"
       apply_no_weight="true"
       apply_with_weight="true"
       only_selected="false" />
    <inkscape:path-effect
       effect="bspline"
       id="path-effect1448"
       is_visible="true"
       lpeversion="1"
       weight="33.333333"
       steps="2"
       helper_size="0"
       apply_no_weight="true"
       apply_with_weight="true"
       only_selected="false" />
    <inkscape:path-effect
       effect="bspline"
       id="path-effect1444"
       is_visible="true"
       lpeversion="1"
       weight="33.333333"
       steps="2"
       helper_size="0"
       apply_no_weight="true"
       apply_with_weight="true"
       only_selected="false" />
    <inkscape:path-effect
       effect="spiro"
       id="path-effect1395"
       is_visible="true"
       lpeversion="1" />
    <inkscape:path-effect
       effect="spiro"
       id="path-effect1377"
       is_visible="true"
       lpeversion="1" />
    <inkscape:path-effect
       effect="spiro"
       id="path-effect1365"
       is_visible="true"
       lpeversion="1" />
    <inkscape:path-effect
       effect="spiro"
       id="path-effect1355"
       is_visible="true"
       lpeversion="1" />
    <linearGradient
       inkscape:collect="always"
       id="linearGradient1349">
      <stop
         style="stop-color:#ffffff;stop-opacity:1"
         offset="0"
         id="stop1345" />
      <stop
         style="stop-color:#ffda47;stop-opacity:0;"
         offset="1"
         id="stop1347" />
    </linearGradient>
    <linearGradient
       inkscape:collect="always"
       id="linearGradient1341">
      <stop
         style="stop-color:#ffffff;stop-opacity:1;"
         offset="0"
         id="stop1337" />
      <stop
         style="stop-color:#ffffff;stop-opacity:0;"
         offset="1"
         id="stop1339" />
    </linearGradient>
    <inkscape:path-effect
       effect="spiro"
       id="path-effect1325"
       is_visible="true"
       lpeversion="1" />
    <inkscape:path-effect
       effect="spiro"
       id="path-effect1275"
       is_visible="true"
       lpeversion="1" />
    <linearGradient
       id="linearGradient1251"
       inkscape:collect="always">
      <stop
         id="stop1247"
         offset="0"
         style="stop-color:#ffd38a;stop-opacity:1" />
      <stop
         style="stop-color:#dd9855;stop-opacity:1;"
         offset="0.98617023"
         id="stop1330" />
      <stop
         style="stop-color:#dd9855;stop-opacity:0"
         offset="1"
         id="stop1253" />
    </linearGradient>
    <linearGradient
       inkscape:collect="always"
       id="top">
      <stop
         style="stop-color:#ad5d00;stop-opacity:1"
         offset="0"
         id="stop920" />
      <stop
         style="stop-color:#932a00;stop-opacity:1"
         offset="1"
         id="stop922" />
    </linearGradient>
    <linearGradient
       inkscape:collect="always"
       xlink:href="#top"
       id="linearGradient926"
       x1="67.247742"
       y1="62.581184"
       x2="67.247742"
       y2="73.875481"
       gradientUnits="userSpaceOnUse" />
    <linearGradient
       inkscape:collect="always"
       xlink:href="#linearGradient1251"
       id="linearGradient1245"
       gradientUnits="userSpaceOnUse"
       x1="67.247742"
       y1="56.943455"
       x2="67.247742"
       y2="60.339943" />
    <linearGradient
       inkscape:collect="always"
       xlink:href="#linearGradient1341"
       id="linearGradient1343"
       x1="68.521835"
       y1="91.325027"
       x2="68.521835"
       y2="78.458755"
       gradientUnits="userSpaceOnUse" />
    <linearGradient
       inkscape:collect="always"
       xlink:href="#linearGradient1349"
       id="linearGradient1351"
       x1="69.441643"
       y1="91.349724"
       x2="69.441643"
       y2="86.179222"
       gradientUnits="userSpaceOnUse" />
    <filter
       y="-0.12"
       height="1.25"
       x="-0.12"
       id="filter1202"
       inkscape:label="Drop Shadow"
       style="color-interpolation-filters:sRGB"
       width="1.25">
      <feFlood
         id="feFlood1192"
         result="flood"
         flood-color="rgb(0,0,0)"
         flood-opacity="1" />
      <feComposite
         id="feComposite1194"
         result="composite1"
         operator="in"
         in2="SourceGraphic"
         in="flood" />
      <feGaussianBlur
         stdDeviation="1.8799999999999999"
         id="feGaussianBlur74" />
      <feOffset
         id="feOffset1198"
         result="offset"
         dy="1.5"
         dx="0" />
      <feComposite
         id="feComposite1200"
         result="composite2"
         operator="over"
         in2="offset"
         in="SourceGraphic" />
      <feBlend
         id="feBlend1204"
         in2="composite2"
         mode="darken" />
    </filter>
    <radialGradient
       inkscape:collect="always"
       xlink:href="#linearGradient1120"
       id="radialGradient1122"
       cx="68.603844"
       cy="51.320103"
       fx="68.603844"
       fy="51.320103"
       r="11.70575"
       gradientTransform="matrix(0.29294677,-0.27610869,0.27009169,0.2936272,34.645749,55.193236)"
       gradientUnits="userSpaceOnUse" />
    <filter
       width="1.25"
       style="color-interpolation-filters:sRGB"
       inkscape:label="Glow"
       id="filter1153"
       x="-0.12"
       height="1.25"
       y="-0.12">
      <feFlood
         flood-opacity="1"
         flood-color="rgb(238,238,236)"
         result="flood"
         id="feFlood1141" />
      <feComposite
         in="flood"
         in2="SourceGraphic"
         operator="in"
         result="composite1"
         id="feComposite1143" />
      <feGaussianBlur
         id="feGaussianBlur1145"
         stdDeviation="0.20000000000000001" />
      <feOffset
         dx="0"
         dy="0"
         result="offset"
         id="feOffset1147" />
      <feComposite
         in="SourceGraphic"
         operator="over"
         result="composite2"
         id="feComposite1149"
         in2="offset" />
      <feBlend
         mode="normal"
         in2="composite2"
         id="feBlend1165" />
    </filter>
    <radialGradient
       inkscape:collect="always"
       xlink:href="#linearGradient1120"
       id="radialGradient1167"
       gradientUnits="userSpaceOnUse"
       gradientTransform="matrix(0.29294677,-0.27610869,0.27009169,0.2936272,34.645749,55.193236)"
       cx="68.603844"
       cy="51.320103"
       fx="68.603844"
       fy="51.320103"
       r="11.70575" />
  </defs>
  <sodipodi:namedview
     id="base"
     pagecolor="#ffffff"
     bordercolor="#666666"
     borderopacity="1.0"
     inkscape:pageopacity="0.0"
     inkscape:pageshadow="2"
     inkscape:zoom="4"
     inkscape:cx="135.60145"
     inkscape:cy="69.354216"
     inkscape:document-units="mm"
     inkscape:current-layer="layer1"
     inkscape:document-rotation="0"
     showgrid="false"
     inkscape:window-width="1323"
     inkscape:window-height="904"
     inkscape:window-x="1145"
     inkscape:window-y="440"
     inkscape:window-maximized="0"
     showguides="false" />
  <metadata
     id="metadata5">
    <rdf:RDF>
      <cc:Work
         rdf:about="">
        <dc:format>image/svg+xml</dc:format>
        <dc:type
           rdf:resource="http://purl.org/dc/dcmitype/StillImage" />
        <dc:title />
      </cc:Work>
    </rdf:RDF>
  </metadata>
  <g
     transform="translate(-43.923819,-42.070997)"
     inkscape:label="Main-Shape"
     inkscape:groupmode="layer"
     id="layer1">
    <g
       inkscape:label="back-shadow"
       style="opacity:1;mix-blend-mode:normal;fill:#ffffff;fill-opacity:1;stroke:none;stroke-width:1;stroke-miterlimit:4;stroke-dasharray:none;stroke-opacity:1;filter:url(#filter1202)"
       id="g907">
      <circle
         style="fill:#ffffff;fill-opacity:1;stroke:none;stroke-width:0.149439;stroke-miterlimit:4;stroke-dasharray:none;stroke-opacity:0.165585"
         id="circle913"
         cx="68.631111"
         cy="72.966927"
         r="19.925236"
         inkscape:label="shadow-bottom" />
      <circle
         inkscape:label="shadow-mid"
         cy="71.247849"
         cx="68.631111"
         id="circle58"
         style="fill:#ffffff;fill-opacity:1;stroke:none;stroke-width:1;stroke-miterlimit:4;stroke-dasharray:none;stroke-opacity:0.165585"
         r="19.925236" />
      <path
         style="fill:#ffffff;fill-opacity:1;stroke:url(#radialGradient1122);stroke-width:0.99393;stroke-linecap:butt;stroke-linejoin:miter;stroke-miterlimit:4;stroke-dasharray:none;stroke-opacity:0.165585"
         d="m 70.589157,47.516122 h -4.408113 l -9.140967,7.60796 h 23.128157 z"
         id="path902"
         inkscape:label="shadow-top"
         inkscape:export-xdpi="1146.4025"
         inkscape:export-ydpi="1146.4025" />
    </g>
    <g
       id="g1135"
       style="opacity:1;mix-blend-mode:normal;fill:#ffffff;fill-opacity:1;stroke:none;stroke-width:1;stroke-miterlimit:4;stroke-dasharray:none;stroke-opacity:1;filter:url(#filter1153)"
       inkscape:label="back-glow">
      <circle
         inkscape:label="white-bottom"
         r="19.925236"
         cy="72.966927"
         cx="68.631111"
         id="circle1129"
         style="fill:#ffffff;fill-opacity:1;stroke:none;stroke-width:0.149439;stroke-miterlimit:4;stroke-dasharray:none;stroke-opacity:0.165585" />
      <circle
         r="19.925236"
         style="fill:#ffffff;fill-opacity:1;stroke:none;stroke-width:1;stroke-miterlimit:4;stroke-dasharray:none;stroke-opacity:0.165585"
         id="circle1131"
         cx="68.631111"
         cy="71.247849"
         inkscape:label="white-mid" />
      <path
         inkscape:label="white-top"
         id="path1133"
         d="m 70.589157,47.516122 h -4.408113 l -9.140967,7.60796 h 23.128157 z"
         style="fill:#ffffff;fill-opacity:1;stroke:url(#radialGradient1167);stroke-width:0.99393;stroke-linecap:butt;stroke-linejoin:miter;stroke-miterlimit:4;stroke-dasharray:none;stroke-opacity:0.165585"
         inkscape:export-xdpi="1146.4025"
         inkscape:export-ydpi="1146.4025" />
    </g>
    <g
       id="g1423"
       inkscape:label="circle">
      <circle
         inkscape:label="body"
         r="19.925236"
         cy="72.966927"
         cx="68.631111"
         id="path24"
         style="fill:#710300;fill-opacity:1;stroke:#efab6a;stroke-width:0.149439;stroke-miterlimit:4;stroke-dasharray:none;stroke-opacity:1" />
      <circle
         inkscape:label="gradient-lower"
         style="fill:url(#linearGradient926);fill-opacity:1;stroke:#ffda47;stroke-width:0.447942;stroke-miterlimit:4;stroke-dasharray:none;stroke-opacity:1"
         id="circle876"
         cx="68.631111"
         cy="72.966927"
         r="19.230221" />
      <circle
         inkscape:label="gradient-upper"
         r="19.230221"
         cy="72.966927"
         cx="68.631111"
         id="circle1243"
         style="fill:url(#linearGradient1245);fill-opacity:1;stroke:#ffda47;stroke-width:0.447942;stroke-miterlimit:4;stroke-dasharray:none;stroke-opacity:1" />
    </g>
    <g
       id="g1418"
       inkscape:label="detail">
      <g
         id="g1414"
         transform="matrix(1.0705945,0,0,1.0705945,-5.3077533,-4.9102257)"
         inkscape:label="top">
        <ellipse
           style="fill:#ffd745;fill-opacity:1;stroke-width:0.315818"
           id="path908"
           cx="68.8629"
           cy="60.312443"
           rx="6.0002913"
           ry="5.3521342"
           inkscape:label="lower-top-2" />
        <path
           inkscape:path-effect="#path-effect1365"
           inkscape:original-d="m 75.236603,59.171004 0.01699,-0.403039 0.02025,-0.613917 c 0.35062,0.521062 1.058905,0.877366 1.051101,1.562393 -0.008,0.685028 4.564362,1.097249 -0.02341,2.054286 -4.587684,0.95704 -13.372239,4.535757 -13.763844,2.870327 -0.391636,-1.665428 -1.508734,-4.533627 -1.175677,-4.997079 0.333067,-0.463453 0.665868,-0.927169 0.998421,-1.391148 l 0.05384,0.728222 c 0,0 0.01729,0.22101 0.02549,0.331118 0.008,0.110108 0.381777,2.127549 0.572279,3.190927 0.190494,1.063377 3.399768,2.303227 5.099264,3.454444 1.699503,1.151216 1.506501,-0.0553 2.259346,-0.08335 0.752867,-0.02805 3.045286,-2.653793 4.567553,-3.981087 1.522258,-1.327293 0.182403,-1.211821 0.273235,-1.818129 0.09078,-0.606308 0.01689,-0.602383 0.02509,-0.903972 z"
           inkscape:label="lower-top-1"
           id="path1363"
           d="m 75.236603,59.171004 c 0.0062,-0.134325 0.01181,-0.268673 0.01699,-0.403039 0.0079,-0.2046 0.01463,-0.409243 0.02025,-0.613917 0.50627,0.389437 0.881161,0.946689 1.051101,1.562393 0.184072,0.666906 0.129338,1.379516 -0.02341,2.054286 -0.320935,1.417738 -1.07544,2.73222 -2.128032,3.734732 -1.052592,1.002513 -2.398163,1.690831 -3.824378,1.971713 -1.426214,0.280882 -2.928288,0.155203 -4.292987,-0.345373 -1.3647,-0.500577 -2.588946,-1.373154 -3.518447,-2.490745 -0.5746,-0.690873 -1.042011,-1.483057 -1.278268,-2.350037 -0.236257,-0.86698 -0.230879,-1.812615 0.102591,-2.647042 0.213906,-0.535247 0.559791,-1.017185 0.998421,-1.391148 l 0.05384,0.728222 c 0.0082,0.110398 0.01679,0.220761 0.02549,0.331118 0.08533,1.082197 0.153304,2.189483 0.572279,3.190927 0.415577,0.993324 1.16615,1.83174 2.070913,2.415522 0.904762,0.583782 1.958266,0.919279 3.028351,1.038922 0.751913,0.08407 1.517191,0.06378 2.259346,-0.08335 1.041359,-0.206444 2.035696,-0.667391 2.843679,-1.356021 0.807982,-0.688631 1.424839,-1.606427 1.723874,-2.625066 0.173018,-0.589373 0.240002,-1.204784 0.273235,-1.818129 0.01631,-0.301033 0.02468,-0.602497 0.02509,-0.903972 z"
           style="fill:#ffd745;fill-opacity:1;stroke:none;stroke-width:0.029639;stroke-linecap:butt;stroke-linejoin:miter;stroke-miterlimit:4;stroke-dasharray:none;stroke-opacity:1" />
        <path
           sodipodi:nodetypes="cccsscssscccsssssc"
           inkscape:path-effect="#path-effect1355"
           inkscape:original-d="m 76.322751,59.66788 0.0032,-0.235803 -0.0012,-0.935657 c 0.31914,0.998919 1.51778,1.074539 0.95664,2.995962 -0.56115,1.921425 -0.30109,4.844989 -1.68422,5.763479 -1.38313,0.918491 -2.40811,2.755207 -4.15017,2.754678 -1.74207,-5e-4 -4.1137,0.638261 -5.227,-0.0026 -1.1133,-0.640863 -2.82289,-1.276498 -3.3407,-1.923378 -0.5178,-0.646882 -1.55445,0.621557 -1.55419,-1.941441 2.7e-4,-2.562995 2.7e-4,-5.119878 0,-7.689784 l 0.0519,0.89795 c 0,0 0.008,0.116353 0.0121,0.174133 0.004,0.05778 0.64646,2.323323 0.96929,3.484588 0.32283,1.161265 2.27169,1.993858 3.40714,2.99039 1.13545,0.996532 4.1473,0.0067 6.22055,0.0096 2.07325,0.0029 2.53153,-2.539673 3.79689,-3.809906 1.26537,-1.270234 0.36011,-1.687878 0.53977,-2.532214 z"
           inkscape:label="lower-top"
           id="path1353"
           d="m 76.322751,59.66788 c 0.0013,-0.0786 0.0024,-0.157199 0.0032,-0.235803 0.0033,-0.311876 0.0029,-0.623791 -0.0012,-0.935657 0.515476,0.920992 0.842983,1.946665 0.95664,2.995962 0.221174,2.041911 -0.397198,4.162888 -1.68422,5.763479 -1.056221,1.313557 -2.536954,2.266242 -4.15017,2.754678 -1.6923,0.51238 -3.537517,0.518994 -5.227,-0.0026 -1.238021,-0.382214 -2.389127,-1.044008 -3.3407,-1.923378 -0.611182,-0.564807 -1.140987,-1.219074 -1.55419,-1.941441 -0.665917,-1.164166 -1.021972,-2.503725 -1.021972,-3.844892 0,-1.341167 0.356055,-2.680726 1.021972,-3.844892 l 0.0519,0.89795 c 0.0034,0.05809 0.0073,0.116143 0.0121,0.174133 0.0996,1.210893 0.375473,2.424606 0.96929,3.484588 0.751844,1.342066 1.994622,2.381125 3.40714,2.99039 1.958318,0.844686 4.266647,0.864449 6.22055,0.0096 1.682898,-0.736282 3.085459,-2.116352 3.79689,-3.809906 0.336221,-0.80037 0.520379,-1.664309 0.53977,-2.532214 z"
           style="fill:#000000;fill-opacity:1;stroke:none;stroke-width:0.264392px;stroke-linecap:butt;stroke-linejoin:miter;stroke-opacity:1" />
        <ellipse
           inkscape:label="mid-top-2"
           ry="5.9049349"
           rx="6.6328349"
           cy="59.00193"
           cx="68.871964"
           id="path1402"
           style="fill:#000000;fill-opacity:1;stroke:none;stroke-width:0.0349099;stroke-linecap:butt;stroke-miterlimit:4;stroke-dasharray:none;stroke-opacity:1;paint-order:stroke markers fill" />
        <ellipse
           inkscape:label="mid-top-1"
           ry="2.9319005"
           rx="5.1736541"
           cy="58.943592"
           cx="68.848129"
           id="path1398"
           style="fill:#ffd547;fill-opacity:1;stroke:none;stroke-width:0.03;stroke-linecap:butt;stroke-miterlimit:4;stroke-dasharray:none;stroke-opacity:1;paint-order:stroke markers fill" />
        <path
           style="fill:#000000;fill-opacity:1;stroke:none;stroke-width:0.247646px;stroke-linecap:butt;stroke-linejoin:miter;stroke-opacity:1"
           d="m 72.388759,57.44347 c 0,0 0,-0.02455 0,-0.02455 0,0 0,-0.645486 0,-0.645486 0,0 -7.042546,0 -7.042546,0 0,0 0,0.64689 0,0.64689 0,0.008 0,0.01621 0.164134,0.304364 0.164135,0.288154 0.491464,0.855104 1.019119,1.258735 0.527655,0.403632 1.255095,0.64346 1.889094,0.733162 0.633999,0.0897 1.174601,0.0294 1.674217,-0.105676 0.499617,-0.135074 0.958324,-0.344884 1.334115,-0.718526 0.37579,-0.373642 0.668802,-0.91123 0.815335,-1.180073 0.146532,-0.268842 0.146532,-0.26884 0.146532,-0.26884 z"
           id="path1454"
           inkscape:path-effect="#path-effect1456"
           inkscape:original-d="m 72.388759,57.44347 v -0.02455 -0.645486 h -7.042546 v 0.64689 c 0,0 2.47e-4,0.01621 0,0.02394 0.328347,0.568533 0.655676,1.135483 0.983145,1.702856 0.727714,0.240083 1.455154,0.479912 2.182361,0.719498 0.54087,-0.06006 1.081472,-0.120364 1.621839,-0.180915 0.458972,-0.209571 0.917679,-0.419381 1.376148,-0.62944 0.29327,-0.537362 0.586282,-1.07495 0.879053,-1.612795 z"
           inkscape:label="mid-top" />
        <path
           inkscape:label="upper-top"
           inkscape:original-d="m 65.282157,55.934007 c -0.12767,-0.583462 0.676944,-3.890363 1.014996,-5.836028 0.338053,-1.945669 0.823529,-1.801625 1.234875,-2.702922 0.411345,-0.901302 0.901197,-0.537694 1.351381,-0.807028 0.450184,-0.269332 0.994444,0.725868 1.491241,1.088316 0.496808,0.362446 0.72725,1.968803 1.090461,2.952719 0.3632,0.983918 0.591565,3.477424 0.886939,5.215654 0.295363,1.738227 -0.04731,0.863052 -0.07145,1.294093 -0.02413,0.431041 -0.126064,0.394781 -0.189505,0.591687 -0.06347,0.196905 -4.284239,-0.03105 -6.426784,-0.04708 -2.142534,-0.01604 -0.254499,-1.165948 -0.382158,-1.749408 z"
           inkscape:path-effect="#path-effect1395"
           id="path1393"
           d="m 65.282157,55.934007 c 0.127139,-1.974291 0.468098,-3.934741 1.014996,-5.836028 0.275641,-0.958265 0.61453,-1.922267 1.234875,-2.702922 0.169021,-0.212699 0.359646,-0.41153 0.586634,-0.560813 0.226988,-0.149284 0.493071,-0.24722 0.764747,-0.246215 0.321897,0.0012 0.63263,0.141541 0.881849,0.345278 0.249219,0.203736 0.442418,0.467831 0.609392,0.743038 0.546354,0.900502 0.831988,1.931642 1.090461,2.952719 0.433537,1.712657 0.810171,3.450646 0.886939,5.215654 0.01882,0.432812 0.01916,0.870453 -0.07145,1.294093 -0.04338,0.202842 -0.107438,0.401182 -0.189505,0.591687 -0.266005,0.617487 -0.725128,1.149105 -1.293849,1.507721 -0.568721,0.358616 -1.244288,0.543589 -1.916521,0.531282 -0.672234,-0.01231 -1.338832,-0.220986 -1.90172,-0.588691 -0.562888,-0.367704 -1.020831,-0.892666 -1.314694,-1.497392 -0.263347,-0.541927 -0.395532,-1.147031 -0.382158,-1.749408 z"
           style="fill:#000000;fill-opacity:1;stroke:none;stroke-width:0.299806px;stroke-linecap:butt;stroke-linejoin:miter;stroke-opacity:1" />
      </g>
      <path
         inkscape:label="lower-middle"
         inkscape:original-d="m 55.017507,78.311711 c 0.819838,-0.11848 5.999469,1.070709 8.998785,1.605655 2.999316,0.534945 6.074877,0.02286 9.111902,0.03385 3.037025,0.01102 5.901057,-1.05502 8.851172,-1.582938 2.950115,-0.527919 1.411302,-0.04085 2.116544,-0.06168 0.705242,-0.02083 0.381515,2.211537 0.571849,3.316893 0.190345,1.10536 -4.92011,5.120119 -7.380573,7.679771 -2.460474,2.559649 -4.085578,1.345311 -6.12878,2.017556 -2.043192,0.672246 -3.471224,0.07185 -5.207255,0.107363 -1.73602,0.03552 -5.099149,-2.108317 -7.649137,-3.162885 -2.549988,-1.054569 -3.50174,-3.531958 -5.25302,-5.298351 -1.751279,-1.766389 -0.499105,-2.40339 -0.749069,-3.605495 -0.249961,-1.202105 0.171792,-0.463147 0.257275,-0.695128 0.08548,-0.231984 1.640483,-0.236134 2.460307,-0.354611 z"
         inkscape:path-effect="#path-effect1325"
         id="path1323"
         d="m 55.017507,78.311711 c 2.957592,0.744633 5.96273,1.315479 8.998785,1.605655 3.027742,0.289381 6.081916,0.298709 9.111902,0.03385 2.989863,-0.261351 5.956632,-0.7897 8.851172,-1.582938 0.348854,-0.0956 0.699006,-0.195488 1.059149,-0.229184 0.360143,-0.0337 0.735435,0.0026 1.057395,0.167504 0.27421,0.140413 0.498646,0.36982 0.651481,0.637306 0.152835,0.267485 0.235904,0.571815 0.261447,0.878824 0.05109,0.614017 -0.122773,1.224595 -0.341079,1.800763 -1.286976,3.396672 -4.146488,6.026176 -7.380573,7.679771 -1.922548,0.983003 -3.998832,1.66286 -6.12878,2.017556 -1.719481,0.286342 -3.482646,0.361 -5.207255,0.107363 -2.751742,-0.404697 -5.326724,-1.632441 -7.649137,-3.162885 -2.098746,-1.38305 -4.072677,-3.079263 -5.25302,-5.298351 -0.587352,-1.104243 -0.968884,-2.374229 -0.749069,-3.605495 0.04378,-0.245227 0.113488,-0.491711 0.257275,-0.695128 0.127602,-0.18052 0.309529,-0.319473 0.511095,-0.41025 0.201567,-0.09078 0.422325,-0.134709 0.643162,-0.144732 0.441675,-0.02004 0.877301,0.09243 1.30605,0.200371 z"
         style="fill:#ffd843;fill-opacity:1;stroke:url(#linearGradient1343);stroke-width:0.1;stroke-linecap:butt;stroke-linejoin:miter;stroke-miterlimit:4;stroke-dasharray:none;stroke-opacity:1;paint-order:stroke markers fill" />
      <path
         inkscape:label="center"
         inkscape:original-d="M 73.992502,89.369328 72.432796,71.149619 c -0.02555,0.01269 2.449592,0.03704 -0.07748,0.03731 -2.527078,2.69e-4 -5.05442,2.69e-4 -7.582028,0 l -1.473048,18.23948 c 0,0 0.690802,0.689163 1.035807,1.033343 0.345004,0.344179 6.437899,-0.72668 9.656451,-1.090426 z"
         inkscape:path-effect="#path-effect1275"
         id="path1273"
         d="M 73.992502,89.369328 72.432796,71.149619 c -0.02577,0.01256 -0.05159,0.025 -0.07748,0.03731 -2.359116,1.121894 -5.222912,1.121894 -7.582028,0 l -1.473048,18.23948 c 0.307055,0.38011 0.654967,0.727194 1.035807,1.033343 1.403694,1.128397 3.26575,1.668534 5.055386,1.466445 1.789636,-0.202089 3.484351,-1.143864 4.601065,-2.556871 z"
         style="fill:#000000;fill-opacity:1;stroke:url(#linearGradient1351);stroke-width:0.1;stroke-linecap:butt;stroke-linejoin:miter;stroke-miterlimit:4;stroke-dasharray:none;stroke-opacity:1;paint-order:stroke markers fill"
         sodipodi:insensitive="true" />
    </g>
  </g>
</svg>
